<svg width="931" height="661" viewBox="0 0 931 661" fill="none" xmlns="http://www.w3.org/2000/svg">
<path d="M223.21 98.9C223.21 63.38 199.345 45.62 151.615 45.62H90.5652C42.8352 45.62 18.9702 63.38 18.9702 98.9V388.61C18.9702 424.13 42.8352 441.89 90.5652 441.89H151.615C199.345 441.89 223.21 424.13 223.21 388.61V330.335H158.275C158.275 343.655 158.275 350.315 158.275 350.315C157.905 366.225 151.06 374.18 137.74 374.18H108.325C95.7452 374.18 89.0852 366.225 88.3452 350.315V330.335L192.13 258.74C212.85 244.31 223.21 227.105 223.21 207.125V98.9ZM158.275 137.195C158.645 159.025 158.645 175.86 158.275 187.7C157.535 202.5 134.225 222.48 88.3452 247.64V137.195C89.4552 121.285 96.3002 113.33 108.88 113.33H137.74C151.06 113.33 157.905 121.285 158.275 137.195Z" fill="#22863A"/>
<path fill-rule="evenodd" clip-rule="evenodd" d="M616.505 113C628.103 113 637.505 122.402 637.505 134L637.505 246.916C635.119 245.708 607.535 231.623 590.453 217.848C575.391 205.701 568.345 191.754 566.505 187.676L566.505 134C566.505 122.402 575.907 113 587.505 113L616.505 113ZM566.505 281.626L566.505 353C566.505 364.598 575.907 374 587.505 374H616.505C628.103 374 637.505 364.598 637.505 353V329.887L566.505 281.626Z" fill="#22863A"/>
<mask id="mask0" mask-type="alpha" maskUnits="userSpaceOnUse" x="706" y="218" width="206" height="397">
<path d="M706.846 561.1C706.846 596.62 730.711 614.38 778.441 614.38H839.491C887.221 614.38 911.086 596.62 911.086 561.1V271.39C911.086 235.87 887.221 218.11 839.491 218.11H778.441C730.711 218.11 706.846 235.87 706.846 271.39V329.665H771.781C771.781 316.345 771.781 309.685 771.781 309.685C772.151 293.775 778.996 285.82 792.316 285.82H821.731C834.311 285.82 840.971 293.775 841.711 309.685V329.665L737.926 401.26C717.206 415.69 706.846 432.895 706.846 452.875V561.1ZM771.781 522.805C771.411 500.975 771.411 484.14 771.781 472.3C772.521 457.5 795.831 437.52 841.711 412.36V522.805C840.601 538.715 833.756 546.67 821.176 546.67H792.316C778.996 546.67 772.151 538.715 771.781 522.805Z" fill="#22863A"/>
</mask>
<g mask="url(#mask0)">
<path d="M691 432.5L937 265V523H691V432.5Z" fill="#22863A"/>
</g>
<mask id="mask1" mask-type="alpha" maskUnits="userSpaceOnUse" x="292" y="217" width="206" height="397">
<path d="M497.21 560.1C497.21 595.62 473.345 613.38 425.615 613.38H364.565C316.835 613.38 292.97 595.62 292.97 560.1V270.39C292.97 234.87 316.835 217.11 364.565 217.11H425.615C473.345 217.11 497.21 234.87 497.21 270.39V328.665H432.275C432.275 315.345 432.275 308.685 432.275 308.685C431.905 292.775 425.06 284.82 411.74 284.82H382.325C369.745 284.82 363.085 292.775 362.345 308.685V328.665L466.13 400.26C486.85 414.69 497.21 431.895 497.21 451.875V560.1ZM432.275 521.805C432.645 499.975 432.645 483.14 432.275 471.3C431.535 456.5 408.225 436.52 362.345 411.36V521.805C363.455 537.715 370.3 545.67 382.88 545.67H411.74C425.06 545.67 431.905 537.715 432.275 521.805Z" fill="#22863A"/>
</mask>
<g mask="url(#mask1)">
<path d="M513.057 431.5L267.057 264V522H513.057V431.5Z" fill="#22863A"/>
</g>
</svg>
