<svg width="358" height="572" viewBox="0 0 358 572" fill="none" xmlns="http://www.w3.org/2000/svg">
<path d="M134.79 98.9C134.79 63.38 158.655 45.62 206.385 45.62H267.435C315.165 45.62 339.03 63.38 339.03 98.9V388.61C339.03 424.13 315.165 441.89 267.435 441.89H206.385C158.655 441.89 134.79 424.13 134.79 388.61V330.335H199.725C199.725 343.655 199.725 350.315 199.725 350.315C200.095 366.225 206.94 374.18 220.26 374.18H249.675C262.255 374.18 268.915 366.225 269.655 350.315V330.335L165.87 258.74C145.15 244.31 134.79 227.105 134.79 207.125V98.9ZM199.725 137.195C199.355 159.025 199.355 175.86 199.725 187.7C200.465 202.5 223.775 222.48 269.655 247.64V137.195C268.545 121.285 261.7 113.33 249.12 113.33H220.26C206.94 113.33 200.095 121.285 199.725 137.195Z" fill="#22863A"/>
<path fill-rule="evenodd" clip-rule="evenodd" d="M21 113C9.40202 113 0 122.402 0 134L-1.52588e-05 246.916C2.38514 245.708 29.9696 231.623 47.0513 217.848C62.1132 205.701 69.1596 191.754 71 187.676L71 134C71 122.402 61.598 113 50 113L21 113ZM71 281.626L71 353C71 364.598 61.598 374 50 374H21C9.402 374 -2.28882e-05 364.598 -2.28882e-05 353V329.887L71 281.626Z" fill="#22863A"/>
</svg>
